<!-- icon666.com - MILLIONS vector ICONS FREE --><svg xmlns="http://www.w3.org/2000/svg"
    xmlns:xlink="http://www.w3.org/1999/xlink" version="1.1" id="Capa_1" x="0px" y="0px" width="60px" height="60px"
    viewBox="0 0 512 512" style="enable-background:new 0 0 512 512;" xml:space="preserve">
    <g>
        <path d="M401.097,86.065c0-5.523-4.477-10-10-10H271V236.25h130.097V86.065z"></path>
        <path
            d="M241,76.065H120.903c-5.523,0-10,4.477-10,10v83.295l48.129-48.143c5.857-5.859,15.355-5.86,21.213-0.003 c5.859,5.857,5.86,15.355,0.003,21.213l-69.345,69.365v24.458H241V76.065z M210.68,193.921l-12.827,12.832 c-2.929,2.93-6.769,4.395-10.608,4.395c-3.838,0-7.676-1.464-10.605-4.392c-5.859-5.856-5.861-15.354-0.004-21.213l12.827-12.832 c5.855-5.859,15.354-5.861,21.213-0.004C216.535,178.565,216.537,188.063,210.68,193.921z">
        </path>
        <rect x="110.903" y="266.25" width="130.097" height="115.186"></rect>
        <rect x="271" y="266.25" width="130.097" height="115.186"></rect>
        <path
            d="M80.903,76.065c0-16.569,13.432-30,30-30h290.193c16.569,0,30,13.431,30,30v305.371h45.04V20c0-11.046-8.954-20-20-20 H55.863c-11.046,0-20,8.954-20,20v361.435h45.04V76.065z">
        </path>
        <path
            d="M497,411.435H15c-8.284,0-15,6.716-15,15V427c0,46.869,38.131,85,85,85h342c46.869,0,85-38.131,85-85v-0.565 C512,418.151,505.284,411.435,497,411.435z">
        </path>
    </g>
</svg>